<svg width="179" height="221" viewBox="0 0 179 221" fill="none" xmlns="http://www.w3.org/2000/svg">
<mask id="path-1-outside-1_489_15154" maskUnits="userSpaceOnUse" x="0" y="0" width="179" height="221" fill="black">
<rect fill="white" width="179" height="221"/>
<path d="M89.5 13C131.75 13 166 47.2502 166 89.5C166 120.667 147.361 147.48 120.622 159.403C119.838 159.753 119.174 160.332 118.739 161.074L92.9516 205.106C91.4066 207.744 87.5934 207.745 86.0483 205.106L60.2595 161.073C59.8253 160.332 59.1615 159.753 58.3767 159.403C31.6383 147.48 13.0002 120.667 13 89.5C13 47.2502 47.2502 13 89.5 13Z"/>
</mask>
<path d="M89.5 13C131.75 13 166 47.2502 166 89.5C166 120.667 147.361 147.48 120.622 159.403C119.838 159.753 119.174 160.332 118.739 161.074L92.9516 205.106C91.4066 207.744 87.5934 207.745 86.0483 205.106L60.2595 161.073C59.8253 160.332 59.1615 159.753 58.3767 159.403C31.6383 147.48 13.0002 120.667 13 89.5C13 47.2502 47.2502 13 89.5 13Z" fill="#2C5F8D"/>
<path d="M89.5 13V0V13ZM166 89.5L179 89.5001V89.5H166ZM13 89.5H0V89.5001L13 89.5ZM60.2595 161.073L49.0418 167.643L60.2595 161.073ZM58.3767 159.403L53.0824 171.276L58.3767 159.403ZM92.9516 205.106L81.7338 198.537L92.9516 205.106ZM86.0483 205.106L74.8306 211.676L86.0483 205.106ZM120.622 159.403L115.328 147.53V147.53L120.622 159.403ZM118.739 161.074L107.522 154.504L118.739 161.074ZM89.5 13V26C124.57 26 153 54.4299 153 89.5H166H179C179 40.0705 138.929 0 89.5 0V13ZM166 89.5L153 89.4999C153 115.35 137.551 137.621 115.328 147.53L120.622 159.403L125.917 171.276C157.171 157.34 179 125.984 179 89.5001L166 89.5ZM118.739 161.074L107.522 154.504L81.7338 198.537L92.9516 205.106L104.169 211.676L129.957 167.643L118.739 161.074ZM86.0483 205.106L97.266 198.537L71.4772 154.504L60.2595 161.073L49.0418 167.643L74.8306 211.676L86.0483 205.106ZM58.3767 159.403L63.671 147.53C41.4483 137.621 26.0001 115.35 26 89.4999L13 89.5L0 89.5001C0.000200272 125.983 21.8283 157.34 53.0824 171.276L58.3767 159.403ZM13 89.5H26C26 54.4299 54.4299 26 89.5 26V13V0C40.0705 0 0 40.0705 0 89.5H13ZM60.2595 161.073L71.4772 154.504C69.6103 151.316 66.824 148.936 63.671 147.53L58.3767 159.403L53.0824 171.276C51.4989 170.57 50.0403 169.348 49.0418 167.643L60.2595 161.073ZM92.9516 205.106L81.7338 198.537C85.21 192.601 93.7898 192.601 97.266 198.537L86.0483 205.106L74.8306 211.676C81.3969 222.888 97.6032 222.888 104.169 211.676L92.9516 205.106ZM120.622 159.403L115.328 147.53C112.175 148.936 109.389 151.316 107.522 154.504L118.739 161.074L129.957 167.643C128.959 169.348 127.5 170.57 125.917 171.276L120.622 159.403Z" fill="#C9A961" mask="url(#path-1-outside-1_489_15154)"/>
<mask id="path-3-outside-2_489_15154" maskUnits="userSpaceOnUse" x="7" y="7" width="165" height="207" fill="black">
<rect fill="white" x="7" y="7" width="165" height="207"/>
<path d="M89.5 13C131.75 13 166 47.2502 166 89.5C166 120.667 147.361 147.48 120.622 159.403C119.838 159.753 119.174 160.332 118.739 161.074L92.9516 205.106C91.4066 207.744 87.5934 207.745 86.0483 205.106L60.2595 161.073C59.8253 160.332 59.1615 159.753 58.3767 159.403C31.6383 147.48 13.0002 120.667 13 89.5C13 47.2502 47.2502 13 89.5 13Z"/>
</mask>
<path d="M89.5 13C131.75 13 166 47.2502 166 89.5C166 120.667 147.361 147.48 120.622 159.403C119.838 159.753 119.174 160.332 118.739 161.074L92.9516 205.106C91.4066 207.744 87.5934 207.745 86.0483 205.106L60.2595 161.073C59.8253 160.332 59.1615 159.753 58.3767 159.403C31.6383 147.48 13.0002 120.667 13 89.5C13 47.2502 47.2502 13 89.5 13Z" fill="#2C5F8D"/>
<path d="M89.5 13V7V13ZM166 89.5L172 89.5V89.5H166ZM13 89.5H7V89.5L13 89.5ZM60.2595 161.073L55.0821 164.106L60.2595 161.073ZM58.3767 159.403L55.9332 164.883L58.3767 159.403ZM92.9516 205.106L87.7741 202.074L92.9516 205.106ZM86.0483 205.106L80.8709 208.139L86.0483 205.106ZM120.622 159.403L118.179 153.923L120.622 159.403ZM118.739 161.074L113.562 158.041L118.739 161.074ZM89.5 13V19C128.436 19 160 50.5639 160 89.5H166H172C172 43.9365 135.063 7 89.5 7V13ZM166 89.5L160 89.5C160 118.213 142.834 142.93 118.179 153.923L120.622 159.403L123.066 164.883C151.889 152.031 172 123.121 172 89.5L166 89.5ZM118.739 161.074L113.562 158.041L87.7741 202.074L92.9516 205.106L98.129 208.139L123.917 164.106L118.739 161.074ZM86.0483 205.106L91.2257 202.074L65.4369 158.041L60.2595 161.073L55.0821 164.106L80.8709 208.139L86.0483 205.106ZM58.3767 159.403L60.8202 153.923C36.166 142.93 19.0002 118.213 19 89.5L13 89.5L7 89.5C7.00018 123.121 27.1106 152.031 55.9332 164.883L58.3767 159.403ZM13 89.5H19C19 50.5639 50.5639 19 89.5 19V13V7C43.9365 7 7 43.9365 7 89.5H13ZM60.2595 161.073L65.4369 158.041C64.3415 156.171 62.698 154.76 60.8202 153.923L58.3767 159.403L55.9332 164.883C55.6249 164.745 55.3091 164.493 55.0821 164.106L60.2595 161.073ZM92.9516 205.106L87.7741 202.074C88.5466 200.755 90.4532 200.755 91.2257 202.074L86.0483 205.106L80.8709 208.139C84.7335 214.734 94.2666 214.734 98.129 208.139L92.9516 205.106ZM120.622 159.403L118.179 153.923C116.301 154.76 114.658 156.171 113.562 158.041L118.739 161.074L123.917 164.106C123.69 164.493 123.374 164.745 123.066 164.883L120.622 159.403Z" fill="white" mask="url(#path-3-outside-2_489_15154)"/>
<circle cx="89.5" cy="89.5" r="55.5" fill="#C9A961"/>
<path d="M87.3311 55.0676C88.7235 53.9474 90.708 53.9475 92.1006 55.0676L116.359 74.5852C117.257 75.3074 117.779 76.398 117.779 77.55V112.763C117.779 114.864 116.076 116.567 113.975 116.568H65.458C63.3568 116.568 61.6534 114.864 61.6533 112.763V77.55C61.6533 76.398 62.1746 75.3074 63.0723 74.5852L87.3311 55.0676Z" stroke="#2C5F8D" stroke-width="6.43876"/>
<rect x="82.0273" y="91.0687" width="16.4104" height="24.6157" rx="1.17068" stroke="#2C5F8D" stroke-width="6.43876"/>
</svg>
